<svg xmlns="http://www.w3.org/2000/svg" viewBox="0 0 32 32" fill="none" role="img" aria-label="RESOLVE">
  <defs>
    <linearGradient id="resolve-bg" x1="4" y1="4" x2="28" y2="28" gradientUnits="userSpaceOnUse">
      <stop stop-color="#0077B3"/>
      <stop offset="0.52" stop-color="#5C609F"/>
      <stop offset="1" stop-color="#7D8CC4"/>
    </linearGradient>
    <linearGradient id="resolve-line" x1="8" y1="8" x2="24" y2="24" gradientUnits="userSpaceOnUse">
      <stop stop-color="#ffffff" stop-opacity="0.95"/>
      <stop offset="1" stop-color="#E8F1FC" stop-opacity="0.75"/>
    </linearGradient>
  </defs>
  <rect width="32" height="32" rx="9" fill="url(#resolve-bg)"/>
  <path
    d="M9.5 22.5V11.5h4.2c2.35 0 3.85 1.25 3.85 3.15 0 1.35-.7 2.35-1.95 2.85l3.1 5h-2.65l-2.75-4.55h-1.6v4.55H9.5zm2.1-6.45h2c1.15 0 1.8-.55 1.8-1.45 0-.9-.65-1.45-1.8-1.45h-2v2.9z"
    fill="white"
  />
  <circle cx="23.5" cy="10.5" r="2.25" fill="white" fill-opacity="0.95"/>
  <circle cx="25.75" cy="22" r="1.75" fill="white" fill-opacity="0.85"/>
  <path
    d="M23.5 12.75v4.1M23.5 16.85l2 3.5"
    stroke="url(#resolve-line)"
    stroke-width="1.35"
    stroke-linecap="round"
  />
</svg>
